# xmcd CD database file
#
# Track frame offsets:
#	150
#	7499
#	14218
#	21283
#	28775
#	36054
#	43232
#	50240
#	57001
#	63909
#	71403
#	78385
#	85690
#	92525
#	99433
#	106258
#	113529
#	120651
#	128060
#	135252
#	142241
#	148720
#	155824
#	163231
#	170154
#	176916
#	184101
#	191324
#	198738
#	206244
#	213731
#	220493
#	227365
#	234546
#	241569
#	248441
#	255688
#	262353
#	269595
#	276557
#	283886
#	290739
#	297723
#	304641
#	312015
#	319228
#	326366
#	333807
#	341138
#	348392
#
# Disc length: 4741 seconds
#
# Revision: 2
# Processed by: cddbd v1.5.2PL0 Copyright (c) Steve Scherf et al.
# Submitted via: CDex 1.70beta3
#
DISCID=19128332
DTITLE=Various Artist - Best Blue Note 100 Vol. 3 [Disc 1]
DYEAR=2005
DGENRE=Jazz
TTITLE0=Count Every Star/Ike Quebec
TTITLE1=St. Thomas/The Three Sounds
TTITLE2=Billie's Bounce/Jimmy Smith
TTITLE3=Polka Dots And Moonbeams/Lou Donaldson
TTITLE4=Rock Salt/Kenny Burrell
TTITLE5=Tell It Like It Is/Art Blakey and The Jazz Messengers
TTITLE6=Old Devil Moon/Jimmy Smith
TTITLE7=Now's The Time/The Three Sounds
TTITLE8=Blue Rondo/Jackie McLean
TTITLE9=My Funny Valentine/Grant Green
TTITLE10=Davis Cup/Jackie McLean
TTITLE11=A Ghost Of A Chance/Dizzy Reece
TTITLE12=My Girl Shirl/Donald Byrd
TTITLE13=Goin' Way Blues/Jackie McLean
TTITLE14=Borderline/Horace Parlan
TTITLE15=Bad John/Lou Donaldson
TTITLE16=Light Blue/Lou Donaldson
TTITLE17=Hobo Joe/Johnny Coles
TTITLE18=The Cape Verdean Blues/Horace Silver
TTITLE19=Night Watch/Art Blakey and The Jazz Messengers
TTITLE20=Ain't Misbehavin'/Jimmy Smith
TTITLE21=Promice Of The Sun/Herbie Hancock
TTITLE22=Adam's Apple/Wayne Shorter
TTITLE23=Yesterday/Lee Morgan
TTITLE24=Smile, Stacey/Stanley Turrentine
TTITLE25=Cornbread/Lee Morgan
TTITLE26=I'll Keep Loving You/Jackie McLean
TTITLE27=Caribbean Fire Dance/Joe Henderson
TTITLE28=Mosaic/Art Blakey and The Jazz Messengers
TTITLE29=Reach Out I'll Be There/Hank Mobley
TTITLE30=It's Time/Jackie McLean
TTITLE31=Catta/Bobby Hutcherson
TTITLE32=Syeeda's Song Flute/Art Taylor
TTITLE33=Smile/Dexter Gordon
TTITLE34=Love Letters/Stanley Turrentine
TTITLE35=The Fox/Kenny Dorham
TTITLE36=Ahm Miz/Freddie Roach
TTITLE37=La Campimania/Kenny Clarke
TTITLE38=Look Out/Stanley Turrentine
TTITLE39=Googa Mooga/Freddie Roach
TTITLE40=Hub Cap/Freddie Hubbard
TTITLE41=Steppin' Out/Harold Vick
TTITLE42=Moon River/Art Blakey and The Jazz Messengers
TTITLE43=A Jump Ahead/Herbie Hancock
TTITLE44=Gee Gee/John Patton
TTITLE45=Back Road/Joe Henderson
TTITLE46=Cristo Redentor/Donald Byrd
TTITLE47=Night And Day/Joe Henderson
TTITLE48=Jeannine/Donald Byrd
TTITLE49=Soy Califa/Dexter Gordon
EXTD=YEAR: 2005
EXTT0=
EXTT1=
EXTT2=
EXTT3=
EXTT4=
EXTT5=
EXTT6=
EXTT7=
EXTT8=
EXTT9=
EXTT10=
EXTT11=
EXTT12=
EXTT13=
EXTT14=
EXTT15=
EXTT16=
EXTT17=
EXTT18=
EXTT19=
EXTT20=
EXTT21=
EXTT22=
EXTT23=
EXTT24=
EXTT25=
EXTT26=
EXTT27=
EXTT28=
EXTT29=
EXTT30=
EXTT31=
EXTT32=
EXTT33=
EXTT34=
EXTT35=
EXTT36=
EXTT37=
EXTT38=
EXTT39=
EXTT40=
EXTT41=
EXTT42=
EXTT43=
EXTT44=
EXTT45=
EXTT46=
EXTT47=
EXTT48=
EXTT49=
PLAYORDER=
